<mxfile host="Electron" modified="2024-04-14T20:08:13.002Z" agent="Mozilla/5.0 (Windows NT 10.0; Win64; x64) AppleWebKit/537.36 (KHTML, like Gecko) draw.io/24.2.5 Chrome/120.0.6099.109 Electron/28.1.0 Safari/537.36" etag="EN-HiAHtWNdP2jQcVMoC" version="24.2.5" type="device" pages="2">
  <diagram name="GeneralMapClases" id="HxhWMXM4oB7l1AwxK58U">
    <mxGraphModel dx="4732" dy="2273" grid="1" gridSize="10" guides="1" tooltips="1" connect="1" arrows="1" fold="1" page="1" pageScale="1" pageWidth="827" pageHeight="1169" math="0" shadow="0">
      <root>
        <mxCell id="0" />
        <mxCell id="1" parent="0" />
        <mxCell id="preP2QebC4gda5gmUQMS-1" value="&lt;font color=&quot;#1d1b1b&quot;&gt;&lt;b&gt;MODEL&lt;/b&gt;&lt;/font&gt;" style="shape=document;whiteSpace=wrap;html=1;boundedLbl=1;fillColor=#f8cecc;strokeColor=#b85450;" vertex="1" parent="1">
          <mxGeometry x="80" y="40" width="120" height="80" as="geometry" />
        </mxCell>
        <mxCell id="preP2QebC4gda5gmUQMS-2" value="&lt;font color=&quot;#1d1b1b&quot;&gt;&lt;b&gt;REPOSITORY&lt;/b&gt;&lt;/font&gt;" style="shape=document;whiteSpace=wrap;html=1;boundedLbl=1;fillColor=#f8cecc;strokeColor=#b85450;" vertex="1" parent="1">
          <mxGeometry x="1450" y="40" width="120" height="80" as="geometry" />
        </mxCell>
        <mxCell id="preP2QebC4gda5gmUQMS-3" value="&lt;font color=&quot;#1d1b1b&quot;&gt;&lt;b&gt;SERVICE&lt;/b&gt;&lt;/font&gt;" style="shape=document;whiteSpace=wrap;html=1;boundedLbl=1;fillColor=#f8cecc;strokeColor=#b85450;" vertex="1" parent="1">
          <mxGeometry x="1930" y="40" width="120" height="80" as="geometry" />
        </mxCell>
        <mxCell id="preP2QebC4gda5gmUQMS-4" value="&lt;font color=&quot;#1d1b1b&quot;&gt;&lt;b&gt;CONTROLLER&lt;/b&gt;&lt;/font&gt;" style="shape=document;whiteSpace=wrap;html=1;boundedLbl=1;fillColor=#f8cecc;strokeColor=#b85450;" vertex="1" parent="1">
          <mxGeometry x="2400" y="40" width="120" height="80" as="geometry" />
        </mxCell>
        <mxCell id="preP2QebC4gda5gmUQMS-5" value="&lt;font color=&quot;#1d1b1b&quot;&gt;&lt;b&gt;UTILS&lt;/b&gt;&lt;/font&gt;" style="shape=document;whiteSpace=wrap;html=1;boundedLbl=1;fillColor=#f8cecc;strokeColor=#b85450;" vertex="1" parent="1">
          <mxGeometry x="-600" y="40" width="120" height="80" as="geometry" />
        </mxCell>
        <mxCell id="preP2QebC4gda5gmUQMS-27" style="edgeStyle=orthogonalEdgeStyle;rounded=0;orthogonalLoop=1;jettySize=auto;html=1;entryX=1;entryY=0.5;entryDx=0;entryDy=0;" edge="1" parent="1" source="preP2QebC4gda5gmUQMS-6" target="preP2QebC4gda5gmUQMS-26">
          <mxGeometry relative="1" as="geometry" />
        </mxCell>
        <mxCell id="preP2QebC4gda5gmUQMS-6" value="&lt;p style=&quot;margin:0px;margin-top:4px;text-align:center;&quot;&gt;&lt;b&gt;USER&lt;/b&gt;&lt;/p&gt;&lt;hr size=&quot;1&quot; style=&quot;border-style:solid;&quot;&gt;&lt;p style=&quot;margin:0px;margin-left:4px;&quot;&gt;- id: integer&lt;/p&gt;&lt;p style=&quot;margin:0px;margin-left:4px;&quot;&gt;- name: String&lt;/p&gt;&lt;p style=&quot;margin:0px;margin-left:4px;&quot;&gt;- lastN&lt;span style=&quot;background-color: initial;&quot;&gt;ame: String&lt;/span&gt;&lt;/p&gt;&lt;p style=&quot;margin:0px;margin-left:4px;&quot;&gt;- birthdate: Date&lt;/p&gt;&lt;p style=&quot;margin:0px;margin-left:4px;&quot;&gt;- email: String&lt;/p&gt;&lt;p style=&quot;margin:0px;margin-left:4px;&quot;&gt;- password: String&lt;br&gt;&lt;/p&gt;&lt;p style=&quot;margin:0px;margin-left:4px;&quot;&gt;- isActive: boolean&lt;/p&gt;&lt;p style=&quot;margin:0px;margin-left:4px;&quot;&gt;- role: Roll&lt;/p&gt;&lt;hr size=&quot;1&quot; style=&quot;border-style:solid;&quot;&gt;&lt;p style=&quot;margin:0px;margin-left:4px;&quot;&gt;+ User() -&amp;gt; Empty constructor&lt;/p&gt;&lt;p style=&quot;margin:0px;margin-left:4px;&quot;&gt;+ User(name, lastName, birthdate, email)&lt;/p&gt;&lt;p style=&quot;margin:0px;margin-left:4px;&quot;&gt;+ getter() &amp;amp; setters()&lt;/p&gt;&lt;p style=&quot;margin:0px;margin-left:4px;&quot;&gt;+ toString()&lt;/p&gt;" style="verticalAlign=top;align=left;overflow=fill;html=1;whiteSpace=wrap;fillStyle=solid;fillColor=#68605a;gradientColor=none;" vertex="1" parent="1">
          <mxGeometry x="40" y="160" width="200" height="240" as="geometry" />
        </mxCell>
        <mxCell id="gav5iKjm3K0pXsZ3ulH1-11" style="edgeStyle=orthogonalEdgeStyle;rounded=0;orthogonalLoop=1;jettySize=auto;html=1;entryX=0.5;entryY=0;entryDx=0;entryDy=0;exitX=0.25;exitY=1;exitDx=0;exitDy=0;" edge="1" parent="1" source="preP2QebC4gda5gmUQMS-7" target="gav5iKjm3K0pXsZ3ulH1-4">
          <mxGeometry relative="1" as="geometry">
            <Array as="points">
              <mxPoint x="-30" y="925" />
              <mxPoint x="-220" y="925" />
            </Array>
          </mxGeometry>
        </mxCell>
        <mxCell id="preP2QebC4gda5gmUQMS-7" value="&lt;p style=&quot;margin:0px;margin-top:4px;text-align:center;&quot;&gt;&lt;b&gt;EMPLOYEE - extends User&lt;/b&gt;&lt;/p&gt;&lt;hr size=&quot;1&quot; style=&quot;border-style:solid;&quot;&gt;&lt;p style=&quot;margin:0px;margin-left:4px;&quot;&gt;- id: integer&lt;/p&gt;&lt;p style=&quot;margin:0px;margin-left:4px;&quot;&gt;- employeeId: integer&lt;/p&gt;&lt;hr size=&quot;1&quot; style=&quot;border-style:solid;&quot;&gt;&lt;p style=&quot;margin:0px;margin-left:4px;&quot;&gt;+ Employee() -&amp;gt; Empty constructor&lt;/p&gt;&lt;p style=&quot;margin:0px;margin-left:4px;&quot;&gt;+ getter() &amp;amp; setters()&lt;/p&gt;&lt;p style=&quot;margin:0px;margin-left:4px;&quot;&gt;+ toString()&lt;/p&gt;" style="verticalAlign=top;align=left;overflow=fill;html=1;whiteSpace=wrap;fillStyle=solid;fillColor=#68605a;gradientColor=none;" vertex="1" parent="1">
          <mxGeometry x="-80" y="480" width="200" height="130" as="geometry" />
        </mxCell>
        <mxCell id="preP2QebC4gda5gmUQMS-40" style="edgeStyle=orthogonalEdgeStyle;rounded=0;orthogonalLoop=1;jettySize=auto;html=1;entryX=0.5;entryY=0;entryDx=0;entryDy=0;" edge="1" parent="1" source="preP2QebC4gda5gmUQMS-8" target="preP2QebC4gda5gmUQMS-39">
          <mxGeometry relative="1" as="geometry" />
        </mxCell>
        <mxCell id="gav5iKjm3K0pXsZ3ulH1-1" style="edgeStyle=orthogonalEdgeStyle;rounded=0;orthogonalLoop=1;jettySize=auto;html=1;exitX=0.75;exitY=1;exitDx=0;exitDy=0;entryX=0.5;entryY=0;entryDx=0;entryDy=0;" edge="1" parent="1" source="preP2QebC4gda5gmUQMS-8" target="preP2QebC4gda5gmUQMS-33">
          <mxGeometry relative="1" as="geometry">
            <Array as="points">
              <mxPoint x="310" y="1050" />
              <mxPoint x="150" y="1050" />
            </Array>
          </mxGeometry>
        </mxCell>
        <mxCell id="preP2QebC4gda5gmUQMS-8" value="&lt;p style=&quot;margin:0px;margin-top:4px;text-align:center;&quot;&gt;&lt;b&gt;CLIENT - extends User&lt;/b&gt;&lt;/p&gt;&lt;hr size=&quot;1&quot; style=&quot;border-style:solid;&quot;&gt;&lt;p style=&quot;margin:0px;margin-left:4px;&quot;&gt;- calification: double&lt;br&gt;&lt;/p&gt;&lt;hr size=&quot;1&quot; style=&quot;border-style:solid;&quot;&gt;&lt;p style=&quot;margin:0px;margin-left:4px;&quot;&gt;+ Client() -&amp;gt; Empty constructor&lt;/p&gt;&lt;p style=&quot;margin:0px;margin-left:4px;&quot;&gt;+ getter() &amp;amp; setters()&lt;/p&gt;&lt;p style=&quot;margin:0px;margin-left:4px;&quot;&gt;+ toString()&lt;/p&gt;" style="verticalAlign=top;align=left;overflow=fill;html=1;whiteSpace=wrap;fillStyle=solid;fillColor=#68605a;gradientColor=none;" vertex="1" parent="1">
          <mxGeometry x="160" y="480" width="200" height="130" as="geometry" />
        </mxCell>
        <mxCell id="preP2QebC4gda5gmUQMS-9" value="" style="endArrow=block;endFill=0;html=1;edgeStyle=orthogonalEdgeStyle;align=left;verticalAlign=top;rounded=0;entryX=0.25;entryY=1;entryDx=0;entryDy=0;exitX=0.5;exitY=0;exitDx=0;exitDy=0;" edge="1" parent="1" source="preP2QebC4gda5gmUQMS-7" target="preP2QebC4gda5gmUQMS-6">
          <mxGeometry x="-1" relative="1" as="geometry">
            <mxPoint y="439" as="sourcePoint" />
            <mxPoint x="160" y="439" as="targetPoint" />
          </mxGeometry>
        </mxCell>
        <mxCell id="preP2QebC4gda5gmUQMS-11" value="" style="endArrow=block;endFill=0;html=1;edgeStyle=orthogonalEdgeStyle;align=left;verticalAlign=top;rounded=0;entryX=0.75;entryY=1;entryDx=0;entryDy=0;exitX=0.5;exitY=0;exitDx=0;exitDy=0;" edge="1" parent="1" source="preP2QebC4gda5gmUQMS-8" target="preP2QebC4gda5gmUQMS-6">
          <mxGeometry x="-1" relative="1" as="geometry">
            <mxPoint x="104.75" y="439.5" as="sourcePoint" />
            <mxPoint x="174.75" y="359.5" as="targetPoint" />
          </mxGeometry>
        </mxCell>
        <mxCell id="preP2QebC4gda5gmUQMS-26" value="&lt;p style=&quot;margin:0px;margin-top:4px;text-align:center;&quot;&gt;&lt;b&gt;ROL&lt;/b&gt;&lt;/p&gt;&lt;hr size=&quot;1&quot; style=&quot;border-style:solid;&quot;&gt;&lt;p style=&quot;margin:0px;margin-left:4px;&quot;&gt;- id: integer&lt;/p&gt;&lt;p style=&quot;margin:0px;margin-left:4px;&quot;&gt;- name: String&lt;/p&gt;&lt;hr size=&quot;1&quot; style=&quot;border-style:solid;&quot;&gt;&lt;p style=&quot;margin:0px;margin-left:4px;&quot;&gt;+ Rol() -&amp;gt; Empty constructor&lt;/p&gt;&lt;p style=&quot;margin:0px;margin-left:4px;&quot;&gt;+ Rol (name)&lt;/p&gt;&lt;p style=&quot;margin:0px;margin-left:4px;&quot;&gt;+ getter() &amp;amp; setters()&lt;/p&gt;&lt;p style=&quot;margin:0px;margin-left:4px;&quot;&gt;+ toString()&lt;/p&gt;" style="verticalAlign=top;align=left;overflow=fill;html=1;whiteSpace=wrap;fillStyle=solid;fillColor=#68605a;gradientColor=none;" vertex="1" parent="1">
          <mxGeometry x="-280" y="210" width="200" height="140" as="geometry" />
        </mxCell>
        <mxCell id="preP2QebC4gda5gmUQMS-28" value="&lt;p style=&quot;margin:0px;margin-top:4px;text-align:center;&quot;&gt;&lt;b&gt;UserRepository&lt;/b&gt;&lt;/p&gt;&lt;hr size=&quot;1&quot; style=&quot;border-style:solid;&quot;&gt;&lt;p style=&quot;margin:0px;margin-left:4px;&quot;&gt;&lt;br&gt;&lt;/p&gt;&lt;hr size=&quot;1&quot; style=&quot;border-style:solid;&quot;&gt;&lt;p style=&quot;margin:0px;margin-left:4px;&quot;&gt;&lt;br&gt;&lt;/p&gt;" style="verticalAlign=top;align=left;overflow=fill;html=1;whiteSpace=wrap;fillStyle=solid;fillColor=#68605a;gradientColor=none;" vertex="1" parent="1">
          <mxGeometry x="1400" y="160" width="200" height="110" as="geometry" />
        </mxCell>
        <mxCell id="preP2QebC4gda5gmUQMS-29" value="&lt;p style=&quot;margin:0px;margin-top:4px;text-align:center;&quot;&gt;&lt;b&gt;IUserService&lt;/b&gt;&lt;/p&gt;&lt;hr size=&quot;1&quot; style=&quot;border-style:solid;&quot;&gt;&lt;p style=&quot;margin:0px;margin-left:4px;&quot;&gt;&lt;br&gt;&lt;/p&gt;&lt;hr size=&quot;1&quot; style=&quot;border-style:solid;&quot;&gt;&lt;p style=&quot;margin:0px;margin-left:4px;&quot;&gt;&lt;br&gt;&lt;/p&gt;" style="verticalAlign=top;align=left;overflow=fill;html=1;whiteSpace=wrap;fillStyle=solid;fillColor=#68605a;gradientColor=none;" vertex="1" parent="1">
          <mxGeometry x="1770" y="160" width="200" height="110" as="geometry" />
        </mxCell>
        <mxCell id="preP2QebC4gda5gmUQMS-30" value="&lt;p style=&quot;margin:0px;margin-top:4px;text-align:center;&quot;&gt;&lt;b&gt;UserService&lt;/b&gt;&lt;/p&gt;&lt;hr size=&quot;1&quot; style=&quot;border-style:solid;&quot;&gt;&lt;p style=&quot;margin:0px;margin-left:4px;&quot;&gt;&lt;br&gt;&lt;/p&gt;&lt;hr size=&quot;1&quot; style=&quot;border-style:solid;&quot;&gt;&lt;p style=&quot;margin:0px;margin-left:4px;&quot;&gt;&lt;br&gt;&lt;/p&gt;" style="verticalAlign=top;align=left;overflow=fill;html=1;whiteSpace=wrap;fillStyle=solid;fillColor=#68605a;gradientColor=none;" vertex="1" parent="1">
          <mxGeometry x="2010" y="160" width="200" height="110" as="geometry" />
        </mxCell>
        <mxCell id="preP2QebC4gda5gmUQMS-31" value="&lt;p style=&quot;margin:0px;margin-top:4px;text-align:center;&quot;&gt;&lt;b&gt;UserController&lt;/b&gt;&lt;/p&gt;&lt;hr size=&quot;1&quot; style=&quot;border-style:solid;&quot;&gt;&lt;p style=&quot;margin:0px;margin-left:4px;&quot;&gt;&lt;br&gt;&lt;/p&gt;&lt;hr size=&quot;1&quot; style=&quot;border-style:solid;&quot;&gt;&lt;p style=&quot;margin:0px;margin-left:4px;&quot;&gt;&lt;br&gt;&lt;/p&gt;" style="verticalAlign=top;align=left;overflow=fill;html=1;whiteSpace=wrap;fillStyle=solid;fillColor=#68605a;gradientColor=none;" vertex="1" parent="1">
          <mxGeometry x="2370" y="160" width="200" height="110" as="geometry" />
        </mxCell>
        <mxCell id="FJroX2IqCeDBh3WJ1mV_-1" style="edgeStyle=orthogonalEdgeStyle;rounded=0;orthogonalLoop=1;jettySize=auto;html=1;exitX=1;exitY=0.25;exitDx=0;exitDy=0;entryX=0;entryY=0.75;entryDx=0;entryDy=0;" edge="1" parent="1" source="preP2QebC4gda5gmUQMS-33" target="gav5iKjm3K0pXsZ3ulH1-12">
          <mxGeometry relative="1" as="geometry" />
        </mxCell>
        <mxCell id="FJroX2IqCeDBh3WJ1mV_-2" style="edgeStyle=orthogonalEdgeStyle;rounded=0;orthogonalLoop=1;jettySize=auto;html=1;exitX=1;exitY=0.75;exitDx=0;exitDy=0;entryX=0;entryY=0.25;entryDx=0;entryDy=0;" edge="1" parent="1" source="preP2QebC4gda5gmUQMS-33" target="gav5iKjm3K0pXsZ3ulH1-13">
          <mxGeometry relative="1" as="geometry" />
        </mxCell>
        <mxCell id="preP2QebC4gda5gmUQMS-33" value="&lt;p style=&quot;margin:0px;margin-top:4px;text-align:center;&quot;&gt;&lt;b&gt;TakeAwayOrder&lt;/b&gt;&lt;/p&gt;&lt;hr size=&quot;1&quot; style=&quot;border-style:solid;&quot;&gt;&lt;p style=&quot;margin:0px;margin-left:4px;&quot;&gt;-&amp;nbsp;&lt;span style=&quot;background-color: initial;&quot;&gt;id: integer&lt;/span&gt;&lt;/p&gt;&lt;p style=&quot;margin: 0px 0px 0px 4px;&quot;&gt;- client: Client&lt;/p&gt;&lt;p style=&quot;margin: 0px 0px 0px 4px;&quot;&gt;- List&amp;lt;Product&amp;gt; products&lt;span style=&quot;background-color: initial;&quot;&gt;: Product&lt;/span&gt;&lt;/p&gt;&lt;p style=&quot;margin:0px;margin-left:4px;&quot;&gt;- orderStatus: OrderStatus&lt;/p&gt;&lt;p style=&quot;margin:0px;margin-left:4px;&quot;&gt;- paymentStatus: PaymentStatus&lt;/p&gt;&lt;p style=&quot;margin:0px;margin-left:4px;&quot;&gt;- takeAwayTime: Date&lt;br&gt;&lt;/p&gt;&lt;p style=&quot;margin:0px;margin-left:4px;&quot;&gt;- isActive: boolean&lt;/p&gt;&lt;p style=&quot;margin:0px;margin-left:4px;&quot;&gt;- totalPrice : double&lt;/p&gt;&lt;hr size=&quot;1&quot; style=&quot;border-style:solid;&quot;&gt;&lt;p style=&quot;margin:0px;margin-left:4px;&quot;&gt;+ TakeAwayOrder() -&amp;gt; Empty constructor&lt;/p&gt;&lt;p style=&quot;margin:0px;margin-left:4px;&quot;&gt;+ TakeAwayOrder(name, lastName, birthdate, email)&lt;/p&gt;&lt;p style=&quot;margin:0px;margin-left:4px;&quot;&gt;+ getter() &amp;amp; setters()&lt;/p&gt;&lt;p style=&quot;margin:0px;margin-left:4px;&quot;&gt;+ toString()&lt;/p&gt;" style="verticalAlign=top;align=left;overflow=fill;html=1;whiteSpace=wrap;fillStyle=solid;fillColor=#68605a;gradientColor=none;" vertex="1" parent="1">
          <mxGeometry x="50" y="1210" width="200" height="260" as="geometry" />
        </mxCell>
        <mxCell id="gav5iKjm3K0pXsZ3ulH1-9" style="edgeStyle=orthogonalEdgeStyle;rounded=0;orthogonalLoop=1;jettySize=auto;html=1;entryX=0.5;entryY=1;entryDx=0;entryDy=0;" edge="1" parent="1" source="preP2QebC4gda5gmUQMS-38" target="preP2QebC4gda5gmUQMS-33">
          <mxGeometry relative="1" as="geometry" />
        </mxCell>
        <mxCell id="preP2QebC4gda5gmUQMS-38" value="&lt;p style=&quot;margin:0px;margin-top:4px;text-align:center;&quot;&gt;&lt;b&gt;Product&lt;/b&gt;&lt;/p&gt;&lt;hr size=&quot;1&quot; style=&quot;border-style:solid;&quot;&gt;&lt;p style=&quot;margin:0px;margin-left:4px;&quot;&gt;- id: integer&lt;/p&gt;&lt;p style=&quot;margin:0px;margin-left:4px;&quot;&gt;- name: String&lt;/p&gt;&lt;p style=&quot;margin:0px;margin-left:4px;&quot;&gt;- available: boolean&lt;/p&gt;&lt;p style=&quot;margin:0px;margin-left:4px;&quot;&gt;- availableQuantity: Integer&lt;/p&gt;&lt;p style=&quot;margin:0px;margin-left:4px;&quot;&gt;- price: double&lt;/p&gt;&lt;hr size=&quot;1&quot; style=&quot;border-style:solid;&quot;&gt;&lt;p style=&quot;margin:0px;margin-left:4px;&quot;&gt;+ Product() -&amp;gt; Empty constructor&lt;/p&gt;&lt;p style=&quot;margin:0px;margin-left:4px;&quot;&gt;+ Product(name)&lt;/p&gt;&lt;p style=&quot;margin:0px;margin-left:4px;&quot;&gt;+ getter() &amp;amp; setters()&lt;/p&gt;&lt;p style=&quot;margin:0px;margin-left:4px;&quot;&gt;+ toString()&lt;/p&gt;" style="verticalAlign=top;align=left;overflow=fill;html=1;whiteSpace=wrap;fillStyle=solid;fillColor=#68605a;gradientColor=none;" vertex="1" parent="1">
          <mxGeometry x="-320" y="1480" width="200" height="160" as="geometry" />
        </mxCell>
        <mxCell id="7_HpfnUdxWL2zBtsx0Id-1" style="edgeStyle=orthogonalEdgeStyle;rounded=0;orthogonalLoop=1;jettySize=auto;html=1;exitX=0;exitY=0.25;exitDx=0;exitDy=0;entryX=1;entryY=0.5;entryDx=0;entryDy=0;" edge="1" parent="1" source="preP2QebC4gda5gmUQMS-39" target="preP2QebC4gda5gmUQMS-41">
          <mxGeometry relative="1" as="geometry" />
        </mxCell>
        <mxCell id="7_HpfnUdxWL2zBtsx0Id-2" style="edgeStyle=orthogonalEdgeStyle;rounded=0;orthogonalLoop=1;jettySize=auto;html=1;entryX=1;entryY=0.5;entryDx=0;entryDy=0;exitX=0;exitY=0.75;exitDx=0;exitDy=0;" edge="1" parent="1" source="preP2QebC4gda5gmUQMS-39" target="preP2QebC4gda5gmUQMS-42">
          <mxGeometry relative="1" as="geometry">
            <mxPoint x="30" y="935" as="sourcePoint" />
          </mxGeometry>
        </mxCell>
        <mxCell id="FJroX2IqCeDBh3WJ1mV_-3" style="edgeStyle=orthogonalEdgeStyle;rounded=0;orthogonalLoop=1;jettySize=auto;html=1;exitX=1;exitY=0.25;exitDx=0;exitDy=0;" edge="1" parent="1" source="preP2QebC4gda5gmUQMS-39" target="gav5iKjm3K0pXsZ3ulH1-14">
          <mxGeometry relative="1" as="geometry" />
        </mxCell>
        <mxCell id="FJroX2IqCeDBh3WJ1mV_-8" style="edgeStyle=orthogonalEdgeStyle;rounded=0;orthogonalLoop=1;jettySize=auto;html=1;entryX=0;entryY=0.25;entryDx=0;entryDy=0;" edge="1" parent="1" source="preP2QebC4gda5gmUQMS-39" target="FJroX2IqCeDBh3WJ1mV_-7">
          <mxGeometry relative="1" as="geometry" />
        </mxCell>
        <mxCell id="preP2QebC4gda5gmUQMS-39" value="&lt;p style=&quot;margin:0px;margin-top:4px;text-align:center;&quot;&gt;&lt;b&gt;Reservation&lt;/b&gt;&lt;/p&gt;&lt;hr size=&quot;1&quot; style=&quot;border-style:solid;&quot;&gt;&lt;p style=&quot;margin:0px;margin-left:4px;&quot;&gt;- id: integer&lt;/p&gt;&lt;p style=&quot;margin:0px;margin-left:4px;&quot;&gt;- client: Client&lt;/p&gt;&lt;p style=&quot;margin:0px;margin-left:4px;&quot;&gt;- reservation&lt;span style=&quot;background-color: initial;&quot;&gt;: Date&lt;/span&gt;&lt;/p&gt;&lt;p style=&quot;margin:0px;margin-left:4px;&quot;&gt;- shift: Shift&lt;/p&gt;&lt;p style=&quot;margin:0px;margin-left:4px;&quot;&gt;- email: ConfirmationEmail&lt;/p&gt;&lt;p style=&quot;margin:0px;margin-left:4px;&quot;&gt;- reserStatus: ReservationStatus&lt;/p&gt;&lt;p style=&quot;margin:0px;margin-left:4px;&quot;&gt;- weather: Weather&lt;/p&gt;&lt;p style=&quot;margin:0px;margin-left:4px;&quot;&gt;- inside: boolean&lt;/p&gt;&lt;hr size=&quot;1&quot; style=&quot;border-style:solid;&quot;&gt;&lt;p style=&quot;margin:0px;margin-left:4px;&quot;&gt;+ User() -&amp;gt; Empty constructor&lt;/p&gt;&lt;p style=&quot;margin:0px;margin-left:4px;&quot;&gt;+ User(name, lastName, birthdate, email)&lt;/p&gt;&lt;p style=&quot;margin:0px;margin-left:4px;&quot;&gt;+ getter() &amp;amp; setters()&lt;/p&gt;&lt;p style=&quot;margin:0px;margin-left:4px;&quot;&gt;+ toString()&lt;/p&gt;" style="verticalAlign=top;align=left;overflow=fill;html=1;whiteSpace=wrap;fillStyle=solid;fillColor=#68605a;gradientColor=none;" vertex="1" parent="1">
          <mxGeometry x="40" y="730" width="200" height="240" as="geometry" />
        </mxCell>
        <mxCell id="preP2QebC4gda5gmUQMS-41" value="&lt;p style=&quot;margin:0px;margin-top:4px;text-align:center;&quot;&gt;&lt;b&gt;WeatherExternalAPI-Bonus&lt;/b&gt;&lt;/p&gt;&lt;hr size=&quot;1&quot; style=&quot;border-style:solid;&quot;&gt;&lt;p style=&quot;margin:0px;margin-left:4px;&quot;&gt;&lt;br&gt;&lt;/p&gt;&lt;hr size=&quot;1&quot; style=&quot;border-style:solid;&quot;&gt;&lt;p style=&quot;margin:0px;margin-left:4px;&quot;&gt;&lt;br&gt;&lt;/p&gt;" style="verticalAlign=top;align=left;overflow=fill;html=1;whiteSpace=wrap;fillStyle=solid;fillColor=#68605a;gradientColor=none;" vertex="1" parent="1">
          <mxGeometry x="-640" y="740" width="200" height="100" as="geometry" />
        </mxCell>
        <mxCell id="preP2QebC4gda5gmUQMS-42" value="&lt;p style=&quot;margin:0px;margin-top:4px;text-align:center;&quot;&gt;&lt;b&gt;ConfirmationMail-ExternalAPIBonus&lt;/b&gt;&lt;/p&gt;&lt;hr size=&quot;1&quot; style=&quot;border-style:solid;&quot;&gt;&lt;p style=&quot;margin:0px;margin-left:4px;&quot;&gt;&lt;br&gt;&lt;/p&gt;&lt;hr size=&quot;1&quot; style=&quot;border-style:solid;&quot;&gt;&lt;p style=&quot;margin:0px;margin-left:4px;&quot;&gt;&lt;br&gt;&lt;/p&gt;" style="verticalAlign=top;align=left;overflow=fill;html=1;whiteSpace=wrap;fillStyle=solid;fillColor=#68605a;gradientColor=none;" vertex="1" parent="1">
          <mxGeometry x="-640" y="854" width="200" height="110" as="geometry" />
        </mxCell>
        <mxCell id="gav5iKjm3K0pXsZ3ulH1-8" style="edgeStyle=orthogonalEdgeStyle;rounded=0;orthogonalLoop=1;jettySize=auto;html=1;entryX=0.5;entryY=0;entryDx=0;entryDy=0;" edge="1" parent="1" source="gav5iKjm3K0pXsZ3ulH1-4" target="preP2QebC4gda5gmUQMS-38">
          <mxGeometry relative="1" as="geometry" />
        </mxCell>
        <mxCell id="gav5iKjm3K0pXsZ3ulH1-4" value="&lt;p style=&quot;margin:0px;margin-top:4px;text-align:center;&quot;&gt;&lt;b&gt;QuantityStock&lt;/b&gt;&lt;/p&gt;&lt;hr size=&quot;1&quot; style=&quot;border-style:solid;&quot;&gt;&lt;p style=&quot;margin:0px;margin-left:4px;&quot;&gt;- id: integer&lt;/p&gt;&lt;p style=&quot;margin:0px;margin-left:4px;&quot;&gt;- interalUser: Employee&lt;/p&gt;&lt;p style=&quot;margin:0px;margin-left:4px;&quot;&gt;- product: Product&lt;/p&gt;&lt;p style=&quot;margin:0px;margin-left:4px;&quot;&gt;- InitialQuantity: Integer&lt;/p&gt;&lt;p style=&quot;margin:0px;margin-left:4px;&quot;&gt;- operationQuantity: Integer&lt;/p&gt;&lt;p style=&quot;margin:0px;margin-left:4px;&quot;&gt;- finalQuantity: Integer&lt;/p&gt;&lt;hr size=&quot;1&quot; style=&quot;border-style:solid;&quot;&gt;&lt;p style=&quot;margin:0px;margin-left:4px;&quot;&gt;+ Product() -&amp;gt; Empty constructor&lt;/p&gt;&lt;p style=&quot;margin:0px;margin-left:4px;&quot;&gt;+ Product(name)&lt;/p&gt;&lt;p style=&quot;margin:0px;margin-left:4px;&quot;&gt;+ getter() &amp;amp; setters()&lt;/p&gt;&lt;p style=&quot;margin:0px;margin-left:4px;&quot;&gt;+ toString()&lt;/p&gt;" style="verticalAlign=top;align=left;overflow=fill;html=1;whiteSpace=wrap;fillStyle=solid;fillColor=#68605a;gradientColor=none;" vertex="1" parent="1">
          <mxGeometry x="-320" y="1240" width="200" height="160" as="geometry" />
        </mxCell>
        <mxCell id="gav5iKjm3K0pXsZ3ulH1-10" style="edgeStyle=orthogonalEdgeStyle;rounded=0;orthogonalLoop=1;jettySize=auto;html=1;exitX=0;exitY=0.25;exitDx=0;exitDy=0;entryX=0.998;entryY=0.214;entryDx=0;entryDy=0;entryPerimeter=0;" edge="1" parent="1" source="preP2QebC4gda5gmUQMS-33" target="gav5iKjm3K0pXsZ3ulH1-4">
          <mxGeometry relative="1" as="geometry" />
        </mxCell>
        <mxCell id="gav5iKjm3K0pXsZ3ulH1-12" value="&lt;p style=&quot;margin:0px;margin-top:4px;text-align:center;&quot;&gt;&lt;b&gt;OrderStatus&lt;/b&gt;&lt;/p&gt;&lt;hr size=&quot;1&quot; style=&quot;border-style:solid;&quot;&gt;&lt;p style=&quot;margin:0px;margin-left:4px;&quot;&gt;PENDING&lt;/p&gt;&lt;p style=&quot;margin:0px;margin-left:4px;&quot;&gt;INKITCHEN&lt;br&gt;FINISHED&lt;br&gt;PICK_UP_ORDER&lt;br&gt;&lt;/p&gt;&lt;hr size=&quot;1&quot; style=&quot;border-style:solid;&quot;&gt;&lt;p style=&quot;margin:0px;margin-left:4px;&quot;&gt;&lt;br&gt;&lt;/p&gt;" style="verticalAlign=top;align=left;overflow=fill;html=1;whiteSpace=wrap;fillStyle=solid;fillColor=#68605a;gradientColor=none;" vertex="1" parent="1">
          <mxGeometry x="480" y="1200" width="200" height="110" as="geometry" />
        </mxCell>
        <mxCell id="gav5iKjm3K0pXsZ3ulH1-13" value="&lt;p style=&quot;margin:0px;margin-top:4px;text-align:center;&quot;&gt;&lt;b&gt;PaymentStatus&lt;/b&gt;&lt;/p&gt;&lt;hr size=&quot;1&quot; style=&quot;border-style:solid;&quot;&gt;&lt;p style=&quot;margin:0px;margin-left:4px;&quot;&gt;WAITING&lt;/p&gt;&lt;p style=&quot;margin:0px;margin-left:4px;&quot;&gt;PROCESING_PAYMENT&lt;/p&gt;&lt;p style=&quot;margin:0px;margin-left:4px;&quot;&gt;PAYMENT_CONFIRMED&lt;/p&gt;&lt;p style=&quot;margin:0px;margin-left:4px;&quot;&gt;PAYMENT_REJECTED&lt;/p&gt;&lt;p style=&quot;margin:0px;margin-left:4px;&quot;&gt;&lt;br&gt;&lt;/p&gt;&lt;hr size=&quot;1&quot; style=&quot;border-style:solid;&quot;&gt;&lt;p style=&quot;margin:0px;margin-left:4px;&quot;&gt;&lt;br&gt;&lt;/p&gt;" style="verticalAlign=top;align=left;overflow=fill;html=1;whiteSpace=wrap;fillStyle=solid;fillColor=#68605a;gradientColor=none;" vertex="1" parent="1">
          <mxGeometry x="480" y="1370" width="200" height="150" as="geometry" />
        </mxCell>
        <mxCell id="gav5iKjm3K0pXsZ3ulH1-14" value="&lt;p style=&quot;margin:0px;margin-top:4px;text-align:center;&quot;&gt;&lt;b&gt;ReservationStatus&lt;/b&gt;&lt;/p&gt;&lt;hr size=&quot;1&quot; style=&quot;border-style:solid;&quot;&gt;&lt;p style=&quot;margin:0px;margin-left:4px;&quot;&gt;CONFIRMED&lt;/p&gt;&lt;p style=&quot;margin:0px;margin-left:4px;&quot;&gt;CANCELED&lt;/p&gt;&lt;p style=&quot;margin:0px;margin-left:4px;&quot;&gt;LOSS&lt;/p&gt;&lt;hr size=&quot;1&quot; style=&quot;border-style:solid;&quot;&gt;&lt;p style=&quot;margin:0px;margin-left:4px;&quot;&gt;&lt;br&gt;&lt;/p&gt;" style="verticalAlign=top;align=left;overflow=fill;html=1;whiteSpace=wrap;fillStyle=solid;fillColor=#68605a;gradientColor=none;" vertex="1" parent="1">
          <mxGeometry x="480" y="734" width="200" height="120" as="geometry" />
        </mxCell>
        <mxCell id="FJroX2IqCeDBh3WJ1mV_-7" value="&lt;p style=&quot;margin:0px;margin-top:4px;text-align:center;&quot;&gt;&lt;b&gt;Shift&lt;/b&gt;&lt;/p&gt;&lt;hr size=&quot;1&quot; style=&quot;border-style:solid;&quot;&gt;&lt;p style=&quot;margin:0px;margin-left:4px;&quot;&gt;DAY1(&quot;12:00-13:00&quot;)&lt;/p&gt;&lt;p style=&quot;margin:0px;margin-left:4px;&quot;&gt;DAY1(&quot;12:00-13:00&quot;)&lt;br&gt;&lt;/p&gt;&lt;p style=&quot;margin:0px;margin-left:4px;&quot;&gt;DAY1(&quot;12:00-13:00&quot;)&lt;br&gt;&lt;/p&gt;&lt;p style=&quot;margin:0px;margin-left:4px;&quot;&gt;DAY1(&quot;12:00-13:00&quot;)&lt;br&gt;&lt;/p&gt;&lt;p style=&quot;margin:0px;margin-left:4px;&quot;&gt;NIGHT1(&quot;19:00-20:00&quot;)&lt;/p&gt;&lt;p style=&quot;margin:0px;margin-left:4px;&quot;&gt;NIGHT2(&quot;20:00-21:00&quot;)&lt;br&gt;&lt;/p&gt;&lt;p style=&quot;margin:0px;margin-left:4px;&quot;&gt;NIGHT3(&quot;21:00-23:00&quot;)&lt;br&gt;&lt;/p&gt;&lt;p style=&quot;margin:0px;margin-left:4px;&quot;&gt;NIGHT4&lt;span style=&quot;background-color: initial;&quot;&gt;(&quot;22:00-23:00&quot;)&lt;/span&gt;&lt;br&gt;&lt;/p&gt;&lt;hr size=&quot;1&quot; style=&quot;border-style:solid;&quot;&gt;&lt;p style=&quot;margin:0px;margin-left:4px;&quot;&gt;&lt;br&gt;&lt;/p&gt;" style="verticalAlign=top;align=left;overflow=fill;html=1;whiteSpace=wrap;fillStyle=solid;fillColor=#68605a;gradientColor=none;" vertex="1" parent="1">
          <mxGeometry x="480" y="910" width="200" height="190" as="geometry" />
        </mxCell>
      </root>
    </mxGraphModel>
  </diagram>
  <diagram id="KEhwTuDpDHIY6lXlersn" name="ReservationLogic">
    <mxGraphModel dx="1562" dy="909" grid="1" gridSize="10" guides="1" tooltips="1" connect="1" arrows="1" fold="1" page="1" pageScale="1" pageWidth="1169" pageHeight="827" math="0" shadow="0">
      <root>
        <mxCell id="0" />
        <mxCell id="1" parent="0" />
        <mxCell id="i3tQPNTUUnYiHz20sTh8-1" value="User" style="shape=umlActor;verticalLabelPosition=bottom;verticalAlign=top;html=1;" vertex="1" parent="1">
          <mxGeometry x="90" y="160" width="30" height="60" as="geometry" />
        </mxCell>
      </root>
    </mxGraphModel>
  </diagram>
</mxfile>
